<svg width="16" height="16" viewBox="0 0 16 16" fill="none" xmlns="http://www.w3.org/2000/svg">
<path d="M8.93291 7.99958L15.0662 1.86624C15.3329 1.59958 15.3329 1.19958 15.0662 0.93291C14.7996 0.666243 14.3996 0.666243 14.1329 0.93291L7.99958 7.06624L1.86624 0.93291C1.59958 0.666243 1.19958 0.666243 0.93291 0.93291C0.666243 1.19958 0.666243 1.59958 0.93291 1.86624L7.06624 7.99958L0.93291 14.1329C0.666243 14.3996 0.666243 14.7996 0.93291 15.0662C1.19958 15.3329 1.59958 15.3329 1.86624 15.0662L7.99958 8.93291L14.1329 15.0662C14.3996 15.3329 14.7996 15.3329 15.0662 15.0662C15.3329 14.7996 15.3329 14.3996 15.0662 14.1329L8.93291 7.99958Z" fill="white"/>
</svg>
