<?xml version="1.0" encoding="utf-8"?>
<!-- Generator: Adobe Illustrator 18.0.0, SVG Export Plug-In . SVG Version: 6.00 Build 0)  -->
<!DOCTYPE svg PUBLIC "-//W3C//DTD SVG 1.1//EN" "http://www.w3.org/Graphics/SVG/1.1/DTD/svg11.dtd">
<svg version="1.1" id="Layer_1" xmlns="http://www.w3.org/2000/svg" xmlns:xlink="http://www.w3.org/1999/xlink" x="0px" y="0px"
	 viewBox="-8.1 -2.7 56.1 46.2" enable-background="new -8.1 -2.7 56.1 46.2" xml:space="preserve">
<path fill="#333333" d="M47.8,13.1L40.3,0.9c-0.1-0.2-0.4-0.4-0.6-0.4c-0.1,0-0.2-0.1-0.2-0.1c0,0,0,0-0.1,0H9.2c0,0,0,0-0.1,0
	c-0.1,0-0.3,0-0.4,0.1c0,0-0.1,0-0.1,0c0,0,0,0,0,0C8.5,0.7,8.4,0.8,8.3,0.9c0,0,0,0,0,0L0.7,13c0,0,0,0,0,0.1
	c-0.1,0.2-0.2,0.3-0.2,0.5c0,0,0,0,0,0.1c0,0,0,0.1,0,0.1c0,0.2,0.1,0.4,0.2,0.5c0,0,0,0,0,0l22.8,25.9c0.2,0.2,0.5,0.4,0.8,0.4
	c0.3,0.1,0.6-0.1,0.8-0.4l12.7-14.7c0.4-0.4,0.3-1.1-0.1-1.5c-0.4-0.4-1.1-0.3-1.5,0.1l-9.6,11.1l6.1-20.5h11.7l-4.3,5
	c-0.4,0.4-0.3,1.1,0.1,1.5c0.4,0.4,1.1,0.3,1.5-0.1l5.9-6.8C48,14,48.1,13.5,47.8,13.1z M9.2,3.6l5.4,9h-11L9.2,3.6z M16.7,11.7
	l-5.5-9.1h10.8L16.7,11.7z M24.3,2.8l5.6,9.7H18.7L24.3,2.8z M15.7,14.7l6,20.1L4,14.7H15.7z M18,14.7h12.6l-6.3,21.1L18,14.7z
	 M26.6,2.6h10.8l-5.5,9.1L26.6,2.6z M39.4,3.5l5.6,9h-11L39.4,3.5z"/>
<path fill="none" stroke="#333333" stroke-width="3" stroke-linecap="round" d="M3.8-1L-6,13.1l25.9,28.6"/>
</svg>
