<svg width="50" height="46" viewBox="0 0 50 46" fill="none" xmlns="http://www.w3.org/2000/svg">
<path d="M18.8836 38.7611C18.7569 38.7162 18.5483 38.4996 18.4665 38.3279L7.62257 11.3695C7.5857 11.0711 7.54884 10.7727 7.76546 10.5642L16.4302 2.22239C16.6468 2.01384 16.9453 1.97698 17.072 2.02192L43.6877 11.459C43.9412 11.5489 44.1497 11.7655 44.1866 12.064L45.4077 23.9109C45.4445 24.2094 45.3547 24.4629 45.0562 24.4997L19.4355 38.8141C19.2638 38.896 19.0104 38.8061 18.8836 38.7611ZM8.94299 11.267L19.4229 37.2402L43.9236 23.6701L42.8132 12.7184L16.9579 3.55089L8.94299 11.267Z" fill="#333333"/>
<path d="M44.4154 24.7006L7.91381 11.7582C7.53359 11.6234 7.36998 11.28 7.5048 10.8998C7.63961 10.5196 7.98298 10.356 8.3632 10.4908L44.8647 23.4332C45.245 23.568 45.4086 23.9113 45.2738 24.2916C45.1389 24.6718 44.7956 24.8354 44.4154 24.7006Z" fill="#333333"/>
<path d="M33.2618 20.7458C33.0083 20.6559 32.9265 20.4842 32.8447 20.3125L29.3998 9.10382L19.6636 15.6389C19.4919 15.7207 19.3202 15.8025 19.0667 15.7126C18.8132 15.6228 18.7314 15.4511 18.6496 15.2794L15.683 3.52686C15.5643 3.05676 15.8258 2.72147 16.1243 2.68461C16.4676 2.521 16.8029 2.78256 16.9665 3.12592L19.6959 13.9383L29.3872 7.52991C29.7755 7.23956 30.2824 7.41932 30.4011 7.88942L33.8909 18.9714L42.8218 12.2934C43.1651 12.1298 43.5903 12.1379 43.7539 12.4812C43.9175 12.8246 43.9094 13.2498 43.5661 13.4134L33.8586 20.672C33.8137 20.7988 33.5152 20.8357 33.2618 20.7458Z" fill="#333333"/>
<path d="M18.8845 38.7614C18.631 38.6715 18.4225 38.4549 18.3856 38.1565L18.6131 14.9811C18.6212 14.5559 18.8378 14.3474 19.263 14.3554C19.6881 14.3635 19.8967 14.5801 19.8886 15.0053L19.7833 36.2266L33.0697 19.6789C33.3313 19.3436 33.7564 19.3517 33.965 19.5683C34.3002 19.8299 34.2922 20.2551 34.0756 20.4636L19.653 38.6059C19.4364 38.8144 19.138 38.8513 18.8845 38.7614Z" fill="#333333"/>
</svg>
