<svg width="94" height="89" viewBox="0 0 94 89" fill="none" xmlns="http://www.w3.org/2000/svg">
<path d="M86.7149 46.2519V2.80584C86.7149 1.26005 85.474 0 83.9465 0H9.85904C9.4924 0.00367224 9.13008 0.0792842 8.79276 0.222517C8.45545 0.36575 8.14975 0.573799 7.89312 0.834785C7.63648 1.09577 7.43395 1.40458 7.29707 1.74358C7.1602 2.08258 7.09166 2.44513 7.09538 2.81052V49.7135C5.71678 49.918 4.41222 50.4658 3.30241 51.3061C-0.330753 53.9293 -1.19087 59.7845 1.85479 63.3914L14.31 78.7181C22.0182 87.8757 30.2104 88.9999 42.3836 88.9999C52.8319 88.9999 57.5038 89.0468 66.6079 86.9389L75.477 84.7841C76.9152 86.8264 79.1947 88.1474 81.761 88.1474H86.1321C90.4702 88.1474 94 84.3719 94 79.7299V54.6413C94 50.21 90.7804 46.5704 86.7149 46.2519ZM74.2831 52.0228L70.5983 50.1257C67.6383 48.5954 64.3624 47.7706 61.0283 47.7162C57.6943 47.6617 54.393 48.3791 51.3843 49.8118C49.7064 50.4817 46.045 52.7301 44.1462 52.6552H31.3619C27.1178 52.6552 23.6679 56.159 23.6679 60.4591V62.5061L23.5974 62.4311L14.4651 52.3741C13.9284 51.7807 13.3096 51.2665 12.6274 50.8471V23.0041H35.2489V33.2907C35.2489 34.8411 36.4897 36.1012 38.0173 36.1012H55.464C55.8306 36.0975 56.1929 36.0219 56.5303 35.8787C56.8676 35.7354 57.1733 35.5274 57.4299 35.2664C57.6865 35.0054 57.8891 34.6966 58.0259 34.3576C58.1628 34.0186 58.2314 33.6561 58.2276 33.2907V23.0041H81.1782V46.2519C77.9445 46.5048 75.2561 48.8516 74.2784 52.0228H74.2831ZM40.7856 23.0041H52.705V30.4848H40.7856V22.9995V23.0041ZM81.1829 17.3878H58.2323V5.61168H81.1829V17.3878ZM52.7003 5.61168V17.3925H40.7856V5.61168H52.705H52.7003ZM35.2536 5.61168V17.3925H12.6274V5.61168H35.2489H35.2536ZM65.3295 81.4818C56.9163 83.4351 51.8543 83.3554 42.487 83.3554C31.0564 83.3554 25.5338 83.1681 18.5777 75.1487L6.12247 59.822C3.96043 56.9599 7.8803 53.5779 10.3995 56.1777L19.5318 66.2347C20.6943 67.5164 22.1124 68.5421 23.6955 69.2463C25.2785 69.9505 26.9916 70.3175 28.7252 70.324H54.0352C54.4018 70.3209 54.7642 70.2459 55.1018 70.1033C55.4393 69.9606 55.7454 69.7531 56.0024 69.4925C56.2595 69.232 56.4626 68.9235 56.6 68.5847C56.7375 68.246 56.8066 67.8835 56.8035 67.5182C56.8035 65.9724 55.5627 64.7076 54.0352 64.7076H29.1999V60.4591C29.1999 59.2505 30.1681 58.2668 31.3619 58.2668H44.1462C47.0226 58.4776 51.1822 56.0372 53.7155 54.8989C55.9678 53.827 58.4388 53.2903 60.9343 53.3309C63.4298 53.3716 65.8819 53.9885 68.0978 55.1331L73.893 58.1169V79.402L65.3248 81.4818H65.3295ZM88.4727 79.7299C88.4727 81.2757 87.4246 82.531 86.1368 82.531H81.7657C80.4779 82.531 79.425 81.2757 79.425 79.7299V54.6413C79.425 53.0955 80.4779 51.8401 81.7657 51.8401H86.1368C87.4246 51.8401 88.4727 53.0955 88.4727 54.6413V79.7299Z" fill="#333333"/>
</svg>
