<?xml version="1.0" encoding="utf-8"?>
<!-- Generator: Adobe Illustrator 18.0.0, SVG Export Plug-In . SVG Version: 6.00 Build 0)  -->
<!DOCTYPE svg PUBLIC "-//W3C//DTD SVG 1.1//EN" "http://www.w3.org/Graphics/SVG/1.1/DTD/svg11.dtd">
<svg version="1.1" id="Layer_1" xmlns="http://www.w3.org/2000/svg" xmlns:xlink="http://www.w3.org/1999/xlink" x="0px" y="0px"
	 viewBox="0 0 26 26" enable-background="new 0 0 26 26" xml:space="preserve">
<linearGradient id="SVGID_1_" gradientUnits="userSpaceOnUse" x1="-351.7215" y1="-65.6297" x2="-351.7215" y2="-90.6298" gradientTransform="matrix(0.6942 -0.7198 -0.7198 -0.6942 200.575 -294.5872)">
	<stop  offset="0" style="stop-color:#00C2FF"/>
	<stop  offset="1" style="stop-color:#05FF00"/>
</linearGradient>
<circle fill="none" stroke="url(#SVGID_1_)" stroke-width="1.6667" cx="12.7" cy="12.8" r="11.7"/>
<path fill="#333333" d="M13.6,5.5l-0.2,10.4h-1.6L11.6,5.5H13.6z M12.7,20.1c-0.4,0-0.7-0.1-0.9-0.4s-0.4-0.6-0.4-0.9
	c0-0.4,0.1-0.7,0.4-0.9s0.6-0.4,0.9-0.4c0.3,0,0.6,0.1,0.9,0.4c0.3,0.3,0.4,0.6,0.4,0.9c0,0.4-0.1,0.7-0.4,0.9
	C13.3,20,13,20.1,12.7,20.1z"/>
</svg>
