<?xml version="1.0" encoding="utf-8"?>
<!-- Generator: Adobe Illustrator 18.0.0, SVG Export Plug-In . SVG Version: 6.00 Build 0)  -->
<!DOCTYPE svg PUBLIC "-//W3C//DTD SVG 1.1//EN" "http://www.w3.org/Graphics/SVG/1.1/DTD/svg11.dtd">
<svg version="1.1" id="Layer_1" xmlns="http://www.w3.org/2000/svg" xmlns:xlink="http://www.w3.org/1999/xlink" x="0px" y="0px"
	 viewBox="0 90 612 612" enable-background="new 0 90 612 612" xml:space="preserve">
<path fill="#333333" d="M612,396c0-169.2-136.8-306-306-306S0,226.8,0,396s136.8,306,306,306S612,565.2,612,396z M27.9,396
	c0-153.9,124.2-278.1,278.1-278.1S584.1,242.1,584.1,396S459.9,674.1,306,674.1S27.9,549.9,27.9,396z"/>
<path fill="#333333" d="M346.5,329.4c8.1,9.9,11.7,21.6,11.7,34.2c0,9.9-2.7,18.9-8.1,27.9c-2.7,5.4-7.2,9.9-11.7,14.4l-16.2,16.2
	c-15.3,15.3-26.1,28.8-30.6,40.5c-4.5,11.7-7.2,27.9-7.2,46.8h36c0-17.1,1.8-29.7,5.4-38.7s12.6-19.8,25.2-32.4
	c18-17.1,29.7-30.6,36-39.6s9-20.7,9-35.1c0-23.4-8.1-43.2-24.3-58.5c-16.2-15.3-37.8-22.5-63.9-22.5c-28.8,0-51.3,9-68.4,27
	s-25.2,41.4-25.2,71.1h36c0.9-18,3.6-31.5,8.1-40.5c9-17.1,24.3-25.2,46.8-25.2C324.9,314.1,338.4,319.5,346.5,329.4z"/>
<path d="M284.7,529.2h40.7v42.5h-40.7V529.2z"/>
</svg>
