<svg width="95" height="86" viewBox="0 0 95 86" fill="none" xmlns="http://www.w3.org/2000/svg">
<path d="M95 33.405C95 31.9835 94.525 30.562 93.8125 29.1405C91.9125 25.5868 88.35 23.6915 84.7875 23.6915H78.375L73.3875 13.5041H78.375C79.8 13.2672 80.75 14.4518 80.75 15.8733V16.1102V20.3747C80.75 21.7961 81.7 22.7438 83.125 22.7438C84.55 22.7438 85.5 21.7961 85.5 20.3747V16.1102C85.5 16.1102 85.5 16.1102 85.5 15.8733V15.6364C85.2625 11.8457 82.175 8.76584 78.375 8.76584H71.25L68.875 3.79063C67.6875 1.42149 65.3125 0 62.7 0C61.75 0 60.8 0.236915 59.6125 0.710744L42.9875 8.76584H10.45H9.975C4.5125 8.52893 0 13.0303 0 18.4793V18.7163V18.9532V75.5758C0 81.2617 4.75 86 10.45 86H84.55C90.25 86 95 81.2617 95 75.5758V33.405ZM43.9375 13.2672L50.35 10.1873L61.5125 4.73829C61.75 4.50138 61.9875 4.50138 62.4625 4.50138C63.175 4.50138 63.8875 4.73829 64.3625 5.68595L67.925 12.7934L68.1625 13.2672L73.15 23.4545H22.8L43.9375 13.2672ZM10.45 13.2672H33.25L12.1125 23.4545H9.975C7.125 23.6915 4.9875 21.3223 4.75 18.7163C4.9875 15.6364 7.3625 13.2672 10.45 13.2672ZM90.25 75.5758C90.25 78.6557 87.6375 81.2617 84.55 81.2617H10.45C7.3625 81.2617 4.75 78.6557 4.75 75.5758V26.7714C6.175 27.719 8.075 28.1928 9.975 28.1928H12.825H13.0625H74.575H76L85.5 28.4298C87.1625 28.6667 88.825 29.8512 89.5375 31.2727C89.775 31.7466 90.0125 32.4573 90.0125 33.168V42.4077H69.1125C63.65 42.4077 59.1375 46.9091 59.1375 52.3581C59.1375 57.8072 63.65 62.3085 69.1125 62.3085H90.25V75.5758ZM90.25 57.5702H69.35C66.5 57.5702 64.125 55.2011 64.125 52.3581C64.125 49.5152 66.5 47.146 69.35 47.146H90.25V57.5702Z" fill="#333333"/>
</svg>
