<svg width="57" height="41" viewBox="0 0 57 41" fill="none" xmlns="http://www.w3.org/2000/svg">
<path d="M10.4545 20.5288L15.7435 19.6711C18.2212 19.6711 20.413 20.5288 22.319 22.2442C24.3202 23.8642 25.3209 26.2943 25.3209 29.5344C25.3209 32.6792 24.2726 35.3475 22.176 37.5394C20.0795 39.7312 17.1253 40.8271 13.3134 40.8271C9.59679 40.8271 6.49963 39.3977 4.02189 36.5388C1.63946 33.6798 0.448242 30.0109 0.448242 25.5319C0.448242 20.9576 2.16359 16.431 5.5943 11.952C9.1203 7.47306 14.1234 3.75646 20.6036 0.802246L21.6043 3.23232C12.6463 8.18779 8.16733 13.1909 8.16733 18.2417C8.16733 19.7664 8.92971 20.5288 10.4545 20.5288ZM41.9026 20.5288L47.1916 19.6711C49.6693 19.6711 51.8612 20.5288 53.7671 22.2442C55.7684 23.8642 56.769 26.2943 56.769 29.5344C56.769 32.6792 55.7207 35.3475 53.6242 37.5394C51.5276 39.7312 48.5734 40.8271 44.7615 40.8271C41.0449 40.8271 37.9478 39.3977 35.47 36.5388C33.0876 33.6798 31.8964 30.0109 31.8964 25.5319C31.8964 20.9576 33.6117 16.431 37.0424 11.952C40.5684 7.47306 45.5716 3.75646 52.0518 0.802246L53.0524 3.23232C44.0944 8.18779 39.6155 13.1909 39.6155 18.2417C39.6155 19.7664 40.3778 20.5288 41.9026 20.5288Z" fill="#E8E7E7"/>
</svg>
