<svg width="57" height="41" viewBox="0 0 57 41" fill="none" xmlns="http://www.w3.org/2000/svg">
<path d="M46.3146 20.2984L41.0256 21.156C38.5478 21.156 36.356 20.2984 34.4501 18.583C32.4488 16.9629 31.4482 14.5329 31.4482 11.2928C31.4482 8.14794 32.4965 5.47961 34.593 3.28777C36.6895 1.09593 39.6438 1.14441e-05 43.4557 1.14441e-05C47.1723 1.14441e-05 50.2694 1.42947 52.7471 4.28839C55.1296 7.14732 56.3208 10.8163 56.3208 15.2952C56.3208 19.8695 54.6054 24.3961 51.1747 28.8751C47.6487 33.3541 42.6456 37.0707 36.1654 40.0249L35.1648 37.5948C44.1227 32.6394 48.6017 27.6363 48.6017 22.5855C48.6017 21.0607 47.8393 20.2984 46.3146 20.2984ZM14.8664 20.2984L9.57744 21.156C7.09971 21.156 4.90786 20.2984 3.00192 18.583C1.00067 16.9629 4.95911e-05 14.5329 4.95911e-05 11.2928C4.95911e-05 8.14794 1.04832 5.47961 3.14486 3.28777C5.24141 1.09593 8.19563 1.14441e-05 12.0075 1.14441e-05C15.7241 1.14441e-05 18.8213 1.42947 21.299 4.28839C23.6814 7.14732 24.8727 10.8163 24.8727 15.2952C24.8727 19.8695 23.1573 24.3961 19.7266 28.8751C16.2006 33.3541 11.1975 37.0707 4.71727 40.0249L3.71665 37.5948C12.6746 32.6394 17.1536 27.6363 17.1536 22.5855C17.1536 21.0607 16.3912 20.2984 14.8664 20.2984Z" fill="#E8E7E7"/>
</svg>
