<svg width="125" height="105" viewBox="0 0 125 105" fill="none" xmlns="http://www.w3.org/2000/svg">
<g filter="url(#filter0_d_197_176)">
<path d="M120.647 30.316L104.368 4.03422C104.059 3.5371 103.558 3.25102 103.016 3.09156C102.843 3.03528 102.679 2.97432 102.496 2.95556C102.459 2.95556 102.421 2.92742 102.384 2.92742H36.82C36.7732 2.92742 36.7311 2.96025 36.6843 2.96025C36.4035 2.97901 36.1321 3.05404 35.8654 3.17598C35.7952 3.20412 35.725 3.2135 35.6549 3.25102C35.6408 3.2604 35.6221 3.2604 35.6081 3.26978C35.3039 3.45737 35.0746 3.70593 34.8875 3.98263C34.8781 4.00139 34.85 4.01077 34.8407 4.02953L18.4169 30.3114C18.3889 30.3442 18.4029 30.3864 18.3842 30.4286C18.1923 30.7663 18.0566 31.1368 18.0566 31.5542C18.0566 31.5964 18.08 31.6339 18.08 31.6761C18.08 31.7511 18.1081 31.8074 18.1221 31.8824C18.183 32.2998 18.3421 32.6797 18.5947 32.9939C18.6181 33.0268 18.6135 33.0737 18.6415 33.1018L68.0625 89.2766C68.507 89.7784 69.1434 90.0739 69.8172 90.0739C70.374 90.2287 71.1367 89.7784 71.5812 89.2672L99.1787 57.4608C100.03 56.4853 99.9227 55.0033 98.9541 54.1498C97.9809 53.3056 96.507 53.4041 95.6507 54.3796L74.8473 78.3728L88.1079 33.8991H113.52L104.167 44.6951C103.315 45.6706 103.418 47.1525 104.396 48.0061C105.369 48.855 106.848 48.7565 107.695 47.781L120.427 33.0971C121.1 32.3186 121.189 31.193 120.647 30.316ZM36.7919 9.73705L48.5973 29.2092H24.6215L36.7919 9.73705ZM52.9864 27.4177L40.9844 7.61725H64.4409L52.9864 27.4177ZM69.5505 8.12375L81.7443 29.2092H57.3613L69.5505 8.12375ZM50.993 33.8991L64.0291 77.6083L25.576 33.8991H50.993ZM55.8781 33.8991H83.2276L69.5505 79.7516L55.8781 33.8991ZM74.6648 7.61725H98.1259L86.1193 27.4177L74.6648 7.61725ZM102.351 9.6714L114.451 29.2092H90.5036L102.351 9.6714Z" fill="#333333"/>
<path d="M27.3306 2L6 32.6048L62.1089 94.7419" stroke="#333333" stroke-width="3" stroke-linecap="round"/>
</g>
<defs>
<filter id="filter0_d_197_176" x="0.0878906" y="0.499868" width="124.912" height="103.742" filterUnits="userSpaceOnUse" color-interpolation-filters="sRGB">
<feFlood flood-opacity="0" result="BackgroundImageFix"/>
<feColorMatrix in="SourceAlpha" type="matrix" values="0 0 0 0 0 0 0 0 0 0 0 0 0 0 0 0 0 0 127 0" result="hardAlpha"/>
<feOffset dy="4"/>
<feGaussianBlur stdDeviation="2"/>
<feComposite in2="hardAlpha" operator="out"/>
<feColorMatrix type="matrix" values="0 0 0 0 0 0 0 0 0 0 0 0 0 0 0 0 0 0 0.25 0"/>
<feBlend mode="normal" in2="BackgroundImageFix" result="effect1_dropShadow_197_176"/>
<feBlend mode="normal" in="SourceGraphic" in2="effect1_dropShadow_197_176" result="shape"/>
</filter>
</defs>
</svg>
