<svg width="108" height="102" viewBox="0 0 108 102" fill="none" xmlns="http://www.w3.org/2000/svg">
<path d="M106.756 43.8683L106.755 43.8681C106.207 43.3963 105.507 43.1663 104.785 43.2206C104.063 43.2748 103.405 43.6073 102.932 44.1587L101.382 45.973C100.885 40.6576 99.5676 35.5053 97.4548 30.6227C94.9982 24.9451 91.5348 19.7927 87.1607 15.3087C82.3779 10.4055 76.7711 6.58538 70.496 3.95431C64.4372 1.41399 58.017 0.0848951 51.4134 0.00386942C44.8091 -0.0764607 38.359 1.0943 32.2399 3.48531C25.9024 5.96163 20.2038 9.64326 15.3023 14.4276C-4.7514 34.0025 -5.14644 66.2487 14.422 86.3094C23.9012 96.0273 36.5964 101.471 50.1688 101.637C50.1803 101.637 50.1917 101.637 50.203 101.637C50.9143 101.637 51.5851 101.364 52.0948 100.867C52.359 100.609 52.5649 100.303 52.7068 99.9584C52.853 99.6176 52.9267 99.2572 52.9265 98.8864L52.9159 92.1119C52.9139 90.6189 51.6982 89.4053 50.2055 89.4053C50.2044 89.4053 50.2034 89.4053 50.2024 89.4053C49.4777 89.4062 48.7972 89.6891 48.2861 90.202C47.7748 90.7153 47.4943 91.3971 47.4963 92.1207L47.5024 96.1024C42.5838 95.7521 37.8113 94.6226 33.3001 92.7401C28.7943 90.8599 24.6416 88.2668 20.941 85.0246L23.7992 82.2347C24.8685 81.1909 24.8896 79.4715 23.846 78.4018C23.3405 77.8837 22.6636 77.5934 21.9398 77.5845C21.9283 77.5843 21.9168 77.5843 21.9054 77.5843C21.1941 77.5843 20.5234 77.8571 20.0135 78.3549L17.0789 81.2194C10.1041 73.4855 6.01644 63.6009 5.47928 53.1711L10.1208 53.228C10.8442 53.237 11.5287 52.963 12.0464 52.4576C12.5643 51.9522 12.8545 51.2752 12.8635 50.5509C12.8818 49.0565 11.6812 47.8258 10.187 47.8075L5.52113 47.7503C6.20353 37.5788 10.273 27.9447 17.0722 20.4043L19.9188 23.3223C20.4243 23.8405 21.1012 24.1309 21.825 24.1398C22.5475 24.1449 23.2332 23.875 23.7513 23.3693C24.8207 22.3255 24.8418 20.6061 23.7983 19.5365L20.9355 16.6017C28.436 10.0483 37.9364 6.14165 47.906 5.51141L47.9249 9.14122C47.9287 9.86536 48.214 10.5444 48.7283 11.0537C49.2428 11.5631 49.9268 11.8407 50.649 11.8377C51.373 11.8339 52.052 11.5483 52.561 11.0339C53.0703 10.5194 53.3487 9.83719 53.3447 9.11317L53.3258 5.49113C63.9861 6.08219 74.0186 10.3618 81.7898 17.6345L79.168 20.1938C78.0987 21.2376 78.0777 22.9571 79.1212 24.0267C79.6267 24.5448 80.3038 24.8349 81.0278 24.8439C81.7493 24.8563 82.4357 24.5792 82.9536 24.0735L85.5237 21.5649C88.6463 25.2644 91.1348 29.393 92.9281 33.8522C94.4682 37.6817 95.4696 41.6905 95.9171 45.8068L94.5084 44.1623C94.036 43.6134 93.3779 43.2818 92.6555 43.2286C91.9332 43.175 91.2345 43.4062 90.6862 43.8785C90.1373 44.3513 89.8057 45.0104 89.7526 45.7342C89.6996 46.457 89.931 47.1563 90.4008 47.6991L96.6323 54.9736C97.1583 55.5846 97.9238 55.9263 98.7266 55.914C98.7408 55.9143 98.7548 55.9144 98.7688 55.9144C99.5607 55.9144 100.306 55.5728 100.825 54.9688L107.043 47.6911C107.493 47.1684 107.725 46.5006 107.697 45.8111C107.666 45.0642 107.323 44.356 106.756 43.8683Z" fill="#333333"/>
<path d="M77.2785 34.5836C77.5205 33.8763 77.4578 33.0921 77.1064 32.4318C76.7658 31.7929 76.1973 31.3247 75.5053 31.1134C74.8122 30.9019 74.079 30.9731 73.4401 31.3139L73.3378 31.3684L51.6446 50.0653L39.5713 42.652L39.5223 42.6236C38.8854 42.2787 38.1524 42.2028 37.4584 42.4102C36.7651 42.6172 36.1936 43.0817 35.8491 43.7183C35.5041 44.3556 35.4287 45.0895 35.6366 45.785C35.841 46.4687 36.2949 47.0331 36.9167 47.3773L50.5072 55.7222L50.5562 55.7505C50.954 55.9657 51.391 56.0762 51.8379 56.0762C51.9545 56.0762 52.0719 56.0688 52.1892 56.0536C52.5399 56.0181 52.8763 55.9156 53.1891 55.7488L53.2913 55.6943L53.5272 55.491C53.5958 55.4369 53.6576 55.3837 53.7146 55.3294L76.1011 36.0348C76.6535 35.7064 77.069 35.1954 77.2785 34.5836Z" fill="#333333"/>
<path d="M76.7969 80.9573C77.461 80.508 78.0317 79.9559 78.5056 79.3036C79.4969 77.9378 79.9995 76.3168 79.9995 74.4859C79.9995 72.9841 79.6917 71.6642 79.0839 70.5619C78.4852 69.4791 77.6805 68.5761 76.6908 67.8776C75.7291 67.2003 74.6254 66.6911 73.4107 66.3641C72.2241 66.0444 70.99 65.8823 69.7428 65.8823C68.165 65.8823 66.713 66.1605 65.4265 66.7095C64.1369 67.2605 63.0255 68.0296 62.1232 68.9956C61.2243 69.9584 60.5229 71.1126 60.0389 72.4256C59.6908 73.3682 59.466 74.3869 59.3705 75.4527C59.3178 76.0389 59.515 76.624 59.9117 77.0578C60.3068 77.4901 60.8691 77.7379 61.4545 77.7379H62.0059C63.1054 77.7379 64.0223 76.8734 64.093 75.7698C64.1342 75.1293 64.242 74.5218 64.4136 73.9643C64.6516 73.1895 65.0163 72.5169 65.4977 71.9649C65.972 71.4211 66.5685 70.9908 67.2701 70.6865C67.9847 70.3771 68.831 70.2203 69.7853 70.2203C70.593 70.2203 71.3507 70.3151 72.0369 70.5022C72.6762 70.6766 73.2446 70.957 73.726 71.3353C74.1998 71.7077 74.5625 72.1591 74.8348 72.715C75.1024 73.2619 75.238 73.958 75.238 74.7838C75.238 75.5377 75.0946 76.1853 74.8119 76.7079C74.517 77.2525 74.1353 77.7042 73.6776 78.0506C73.2017 78.4106 72.6572 78.6824 72.0595 78.8585C71.437 79.0416 70.829 79.1345 70.2522 79.1345H69.0506C67.8972 79.1345 66.9587 80.0731 66.9587 81.2268V81.3797C66.9587 82.5334 67.8972 83.472 69.0506 83.472H70.2522C71.1381 83.472 71.9743 83.5862 72.7379 83.8115C73.4651 84.0263 74.1089 84.3561 74.6502 84.7912C75.1821 85.2195 75.5876 85.739 75.8897 86.3775C76.1898 87.0142 76.3419 87.8004 76.3419 88.7148C76.3419 89.5894 76.1668 90.3711 75.8214 91.039C75.4669 91.7251 74.988 92.3124 74.3978 92.7848C73.7956 93.2673 73.0961 93.635 72.3186 93.8777C71.5178 94.128 70.6654 94.2549 69.7851 94.2549C68.7357 94.2549 67.7884 94.0875 66.9694 93.7571C66.1679 93.4343 65.4929 92.9839 64.9627 92.4185C64.431 91.8512 64.0217 91.1503 63.7462 90.3344C63.5479 89.7484 63.4299 89.0987 63.3957 88.4039C63.3408 87.279 62.4229 86.3978 61.306 86.3978H60.6971C60.1332 86.3978 59.6039 86.6188 59.207 87.0201C58.8121 87.4193 58.598 87.9476 58.6041 88.5074C58.6182 89.8131 58.8299 91.0209 59.2336 92.0968C59.756 93.4912 60.5465 94.6834 61.583 95.64C62.6039 96.5835 63.8401 97.3143 65.2568 97.8119C66.6513 98.3021 68.1892 98.5505 69.8274 98.5505C71.2826 98.5505 72.6997 98.3421 74.0399 97.9311C75.4099 97.5103 76.6293 96.8675 77.6638 96.0209C78.7101 95.1645 79.5526 94.0978 80.1677 92.8507C80.7886 91.5929 81.1034 90.13 81.1034 88.5026C81.1034 86.3136 80.49 84.4429 79.2803 82.9421C78.6065 82.1061 77.776 81.4431 76.7969 80.9573Z" fill="#333333"/>
<path d="M103.047 71.5058C102.028 69.5088 101.74 69.1739 99.6158 67.5246C98.1931 66.4196 96.2552 65.8826 93.6908 65.8826C93.6907 65.8826 93.69 65.8826 93.6899 65.8826C91.3312 65.8826 89.359 66.4245 87.8274 67.4933C86.3326 68.5376 85.1566 69.8877 84.3321 71.5064C83.5339 73.0733 82.9852 74.8389 82.7014 76.7535C82.4262 78.6043 82.2866 80.4565 82.2866 82.2587C82.2866 84.0331 82.4262 85.871 82.7014 87.7207C82.9852 89.6364 83.534 91.402 84.332 92.9679C85.1575 94.5896 86.3357 95.9342 87.8338 96.9646C89.3636 98.0165 91.3338 98.55 93.69 98.55C96.076 98.55 98.0548 98.0156 99.5715 96.9615C101.052 95.932 102.222 94.5885 103.048 92.9681C103.845 91.4022 104.394 89.6369 104.678 87.7209C104.954 85.8646 105.093 84.0127 105.093 82.2163C105.093 80.4485 104.954 78.6108 104.678 76.7537C104.393 74.8333 103.844 73.0678 103.047 71.5058ZM100.332 82.2164C100.332 83.4731 100.248 84.8559 100.083 86.3262C99.925 87.7407 99.5976 89.0792 99.1109 90.3039C98.6513 91.4582 97.9698 92.4296 97.0851 93.191C96.2542 93.9068 95.1436 94.2548 93.6899 94.2548C92.2361 94.2548 91.1256 93.9069 90.2945 93.1908C89.4091 92.4287 88.7276 91.4576 88.269 90.304C87.7823 89.0812 87.4551 87.7428 87.2963 86.3262C87.1316 84.8572 87.048 83.4744 87.048 82.2164C87.048 80.9865 87.1316 79.6106 87.2964 78.1266C87.455 76.6978 87.7818 75.3611 88.2676 74.1533C88.7259 73.0134 89.408 72.0481 90.2945 71.2843C91.1261 70.5683 92.2367 70.2202 93.6898 70.2202C95.1426 70.2202 96.2533 70.5683 97.0849 71.2841C97.9707 72.0474 98.6528 73.0128 99.1118 74.153C99.5978 75.363 99.9247 76.7001 100.083 78.1266C100.248 79.6118 100.332 80.9878 100.332 82.2164Z" fill="#333333"/>
</svg>
